<?xml version="1.0" encoding="UTF-8" standalone="no"?>
<!-- Generator: Adobe Illustrator 16.0.0, SVG Export Plug-In . SVG Version: 6.00 Build 0)  -->

<svg
   xmlns:dc="http://purl.org/dc/elements/1.1/"
   xmlns:cc="http://creativecommons.org/ns#"
   xmlns:rdf="http://www.w3.org/1999/02/22-rdf-syntax-ns#"
   xmlns:svg="http://www.w3.org/2000/svg"
   xmlns="http://www.w3.org/2000/svg"
   xmlns:sodipodi="http://sodipodi.sourceforge.net/DTD/sodipodi-0.dtd"
   xmlns:inkscape="http://www.inkscape.org/namespaces/inkscape"
   version="1.1"
   id="Layer_1"
   x="0px"
   y="0px"
   width="120px"
   height="120px"
   viewBox="0 0 120 120"
   enable-background="new 0 0 120 120"
   xml:space="preserve"
   sodipodi:docname="reload.svg"
   inkscape:version="0.92.1 r"><metadata
     id="metadata17"><rdf:RDF><cc:Work
         rdf:about=""><dc:format>image/svg+xml</dc:format><dc:type
           rdf:resource="http://purl.org/dc/dcmitype/StillImage" /></cc:Work></rdf:RDF></metadata><defs
     id="defs15" /><sodipodi:namedview
     pagecolor="#ffffff"
     bordercolor="#666666"
     borderopacity="1"
     objecttolerance="10"
     gridtolerance="10"
     guidetolerance="10"
     inkscape:pageopacity="0"
     inkscape:pageshadow="2"
     inkscape:window-width="1280"
     inkscape:window-height="744"
     id="namedview13"
     showgrid="false"
     inkscape:zoom="1.9666667"
     inkscape:cx="-17.79661"
     inkscape:cy="60"
     inkscape:window-x="0"
     inkscape:window-y="0"
     inkscape:window-maximized="1"
     inkscape:current-layer="Layer_1" /><g
     id="g4"><path
       d="M60,95.5c-19.575,0-35.5-15.926-35.5-35.5c0-19.575,15.925-35.5,35.5-35.5c13.62,0,25.467,7.714,31.418,19h22.627   C106.984,20.347,85.462,3.5,60,3.5C28.796,3.5,3.5,28.796,3.5,60c0,31.203,25.296,56.5,56.5,56.5   c16.264,0,30.911-6.882,41.221-17.88L85.889,84.255C79.406,91.168,70.201,95.5,60,95.5z"
       id="path2"
       style="stroke:none;stroke-opacity:1;fill:#e6e6e6;fill-opacity:1" /></g><line
     fill="none"
     x1="120"
     y1="0"
     x2="120"
     y2="45.336"
     id="line6" /><line
     fill="none"
     x1="91.418"
     y1="43.5"
     x2="114.045"
     y2="43.5"
     id="line8" /><polygon
     points="120,21.832 119.992,68.842 74.827,55.811 "
     id="polygon10"
     style="fill:#e6e6e6;fill-opacity:1" /></svg>